<svg width="81" height="80" viewBox="0 0 81 80" fill="none" xmlns="http://www.w3.org/2000/svg">
<g clip-path="url(#clip0_6_5)">
<rect width="80.1464" height="80" rx="40" fill="white"/>
<path d="M16.6588 38.0236C16.6588 37.574 16.7477 37.1347 16.9203 36.7217C17.0928 36.3086 17.3438 35.9321 17.6628 35.6184C17.9817 35.3047 18.3582 35.0537 18.7713 34.8811C19.1843 34.7138 19.6288 34.6249 20.0732 34.6249L25.7307 34.6459C26.6353 34.6459 27.4981 35.0066 28.136 35.6445C28.7739 36.2825 29.1347 37.1452 29.1347 38.0498V59.4406C29.7726 59.2524 30.5883 59.0485 31.4824 58.8393C32.1046 58.6929 32.6588 58.3426 33.0562 57.8406C33.4536 57.3387 33.668 56.7217 33.668 56.0785V29.5426C33.668 28.638 34.0288 27.7753 34.6615 27.1374C35.2994 26.4995 36.1621 26.1387 37.0667 26.1387H42.7347C43.6392 26.1387 44.502 26.4995 45.1399 27.1374C45.7778 27.7753 46.1386 28.638 46.1386 29.5426V54.17C46.1386 54.17 47.5556 53.5949 48.9412 53.0145C49.4536 52.7949 49.8928 52.4341 50.2013 51.9687C50.5098 51.5034 50.6719 50.9596 50.6771 50.4001V21.0406C50.6771 20.1413 51.0379 19.2733 51.6706 18.6354C52.3085 17.9975 53.1713 17.6367 54.0758 17.6367H59.7438C60.6432 17.6367 61.5111 17.9975 62.149 18.6354C62.7869 19.2733 63.1477 20.1361 63.1477 21.0406V45.2184C68.0628 41.6576 73.0405 37.3753 76.9935 32.2197C77.5687 31.472 77.9451 30.5936 78.0968 29.6628C78.2484 28.7321 78.1647 27.7805 77.8615 26.8864C76.0314 21.621 73.1242 16.8001 69.3229 12.7217C65.5216 8.64847 60.9098 5.40664 55.7856 3.21579C50.6615 1.0354 45.1347 -0.0626412 39.5608 0.000103864C33.987 0.0680777 28.4915 1.29684 23.4196 3.60795C18.3477 5.91906 13.8196 9.26546 10.1124 13.4328C6.41048 17.5949 3.61833 22.489 1.91375 27.7962C0.214406 33.1034 -0.365986 38.7034 0.219635 44.2459C0.805255 49.7883 2.5412 55.1478 5.31767 59.9792C5.79872 60.8106 6.51506 61.4903 7.36735 61.9347C8.22486 62.3792 9.18695 62.5674 10.149 62.4838C11.2209 62.3896 12.5543 62.2537 14.1438 62.0707C14.834 61.9923 15.4719 61.6628 15.9373 61.1452C16.4026 60.6276 16.6588 59.9583 16.6588 59.2628V38.0289" fill="#0A0B0D"/>
<path d="M16.5333 72.3345C22.5098 76.6796 29.5686 79.2888 36.9359 79.8744C44.3033 80.46 51.6863 78.9907 58.2693 75.6391C64.8523 72.2875 70.3843 67.1737 74.2431 60.8731C78.102 54.5724 80.1464 47.3254 80.1464 39.9371C80.1464 39.0169 80.1046 38.1018 80.0418 37.1973C65.4065 59.0221 38.3895 69.2286 16.5333 72.3345Z" fill="#C0D0DB"/>
</g>
<defs>
<clipPath id="clip0_6_5">
<rect width="80.1464" height="80" rx="40" fill="white"/>
</clipPath>
</defs>
</svg>
